# xmcd
#
# Track frame offsets: 
#        150
#        15213
#        37594
#        56174
#
# Disc length: 1177 seconds
#
# Revision: 0
# Processed by: cddbd v1.5.2PL0 Copyright (c) Steve Scherf et al.
# Submitted via: ExactAudioCopyFreeDBPlugin 1.0
#
DISCID=1f049704
DTITLE=DJ Matrix - Balla con me cds
DYEAR=2007
DGENRE=
TTITLE0=Balla con me (Original mix)
TTITLE1=Balla con me (Maxwell rmx)
TTITLE2=Balla con me (Dante rmx)
TTITLE3=Balla con me (Sunthic Genius)
EXTD=
EXTT0=
EXTT1=
EXTT2=
EXTT3=
PLAYORDER=
